<mxfile host="app.diagrams.net" modified="2023-11-11T20:49:36.783Z" agent="Mozilla/5.0 (Windows NT 10.0; Win64; x64) AppleWebKit/537.36 (KHTML, like Gecko) Chrome/119.0.0.0 Safari/537.36" etag="Mm8xRXPh7GxQ97hoZpgH" version="22.1.0" type="device">
  <diagram name="Page-1" id="HCyG9C-WCiqZoLqeZVIj">
    <mxGraphModel dx="1877" dy="530" grid="0" gridSize="10" guides="1" tooltips="1" connect="1" arrows="1" fold="1" page="1" pageScale="1" pageWidth="827" pageHeight="1169" math="0" shadow="0">
      <root>
        <mxCell id="0" />
        <mxCell id="1" parent="0" />
        <mxCell id="hRZYR1ejV4vaYIrMXX3N-1" value="employee" style="shape=umlActor;verticalLabelPosition=bottom;verticalAlign=top;html=1;outlineConnect=0;" parent="1" vertex="1">
          <mxGeometry x="-88" y="125" width="30" height="60" as="geometry" />
        </mxCell>
        <mxCell id="4BPQ8lB-9sZFU7xo0qnq-1" value="submit Leave request" style="ellipse;whiteSpace=wrap;html=1;" parent="1" vertex="1">
          <mxGeometry x="20" y="274" width="131" height="55" as="geometry" />
        </mxCell>
        <mxCell id="4BPQ8lB-9sZFU7xo0qnq-2" value="request CPDA" style="ellipse;whiteSpace=wrap;html=1;" parent="1" vertex="1">
          <mxGeometry x="-8" y="149" width="110" height="46" as="geometry" />
        </mxCell>
        <mxCell id="4BPQ8lB-9sZFU7xo0qnq-3" value="manage profile" style="ellipse;whiteSpace=wrap;html=1;" parent="1" vertex="1">
          <mxGeometry x="-16" y="340" width="130" height="48" as="geometry" />
        </mxCell>
        <mxCell id="4BPQ8lB-9sZFU7xo0qnq-4" value="review/forward CPDA request" style="ellipse;whiteSpace=wrap;html=1;" parent="1" vertex="1">
          <mxGeometry x="527" y="362" width="140" height="55" as="geometry" />
        </mxCell>
        <mxCell id="4BPQ8lB-9sZFU7xo0qnq-5" value="audit/Process CPDA amount" style="ellipse;whiteSpace=wrap;html=1;" parent="1" vertex="1">
          <mxGeometry x="516" y="226" width="140" height="48" as="geometry" />
        </mxCell>
        <mxCell id="4BPQ8lB-9sZFU7xo0qnq-6" value="request LTC" style="ellipse;whiteSpace=wrap;html=1;" parent="1" vertex="1">
          <mxGeometry x="12" y="46.5" width="116" height="46" as="geometry" />
        </mxCell>
        <mxCell id="4BPQ8lB-9sZFU7xo0qnq-7" value="Claim LTC" style="ellipse;whiteSpace=wrap;html=1;" parent="1" vertex="1">
          <mxGeometry x="18" y="102" width="110" height="41" as="geometry" />
        </mxCell>
        <mxCell id="4BPQ8lB-9sZFU7xo0qnq-8" value="Audit/Process LTC Amount" style="ellipse;whiteSpace=wrap;html=1;" parent="1" vertex="1">
          <mxGeometry x="511" y="160" width="140" height="48" as="geometry" />
        </mxCell>
        <mxCell id="4BPQ8lB-9sZFU7xo0qnq-9" value="review/forward LTC request" style="ellipse;whiteSpace=wrap;html=1;" parent="1" vertex="1">
          <mxGeometry x="531" y="434" width="140" height="51" as="geometry" />
        </mxCell>
        <mxCell id="4BPQ8lB-9sZFU7xo0qnq-10" value="submit appraisal form" style="ellipse;whiteSpace=wrap;html=1;" parent="1" vertex="1">
          <mxGeometry x="-76" y="411" width="140" height="51" as="geometry" />
        </mxCell>
        <mxCell id="4BPQ8lB-9sZFU7xo0qnq-11" value="approve leave request" style="ellipse;whiteSpace=wrap;html=1;" parent="1" vertex="1">
          <mxGeometry x="533" y="645" width="140" height="48" as="geometry" />
        </mxCell>
        <mxCell id="4BPQ8lB-9sZFU7xo0qnq-12" value="approve/forward leave request" style="ellipse;whiteSpace=wrap;html=1;" parent="1" vertex="1">
          <mxGeometry x="524" y="294" width="140" height="51" as="geometry" />
        </mxCell>
        <mxCell id="4BPQ8lB-9sZFU7xo0qnq-13" value="claim CPDA" style="ellipse;whiteSpace=wrap;html=1;" parent="1" vertex="1">
          <mxGeometry x="22" y="210" width="120" height="47" as="geometry" />
        </mxCell>
        <mxCell id="4BPQ8lB-9sZFU7xo0qnq-14" value="track status" style="ellipse;whiteSpace=wrap;html=1;" parent="1" vertex="1">
          <mxGeometry x="213" y="44.5" width="101" height="48" as="geometry" />
        </mxCell>
        <mxCell id="4BPQ8lB-9sZFU7xo0qnq-15" value="track status" style="ellipse;whiteSpace=wrap;html=1;" parent="1" vertex="1">
          <mxGeometry x="196" y="154" width="99" height="44" as="geometry" />
        </mxCell>
        <mxCell id="4BPQ8lB-9sZFU7xo0qnq-16" value="track status" style="ellipse;whiteSpace=wrap;html=1;" parent="1" vertex="1">
          <mxGeometry x="213" y="102" width="99" height="44" as="geometry" />
        </mxCell>
        <mxCell id="4BPQ8lB-9sZFU7xo0qnq-17" value="track status" style="ellipse;whiteSpace=wrap;html=1;" parent="1" vertex="1">
          <mxGeometry x="209" y="211.5" width="99" height="44" as="geometry" />
        </mxCell>
        <mxCell id="4BPQ8lB-9sZFU7xo0qnq-18" value="&amp;lt;&amp;lt;extend&amp;gt;&amp;gt;" style="html=1;verticalAlign=bottom;labelBackgroundColor=none;endArrow=open;endFill=0;dashed=1;rounded=0;" parent="1" source="4BPQ8lB-9sZFU7xo0qnq-14" target="4BPQ8lB-9sZFU7xo0qnq-6" edge="1">
          <mxGeometry width="160" relative="1" as="geometry">
            <mxPoint x="297" y="245" as="sourcePoint" />
            <mxPoint x="457" y="245" as="targetPoint" />
          </mxGeometry>
        </mxCell>
        <mxCell id="4BPQ8lB-9sZFU7xo0qnq-19" value="&amp;lt;&amp;lt;extend&amp;gt;&amp;gt;" style="html=1;verticalAlign=bottom;labelBackgroundColor=none;endArrow=open;endFill=0;dashed=1;rounded=0;" parent="1" source="4BPQ8lB-9sZFU7xo0qnq-16" target="4BPQ8lB-9sZFU7xo0qnq-7" edge="1">
          <mxGeometry width="160" relative="1" as="geometry">
            <mxPoint x="297" y="245" as="sourcePoint" />
            <mxPoint x="457" y="245" as="targetPoint" />
          </mxGeometry>
        </mxCell>
        <mxCell id="4BPQ8lB-9sZFU7xo0qnq-20" value="&amp;lt;&amp;lt;extend&amp;gt;&amp;gt;" style="html=1;verticalAlign=bottom;labelBackgroundColor=none;endArrow=open;endFill=0;dashed=1;rounded=0;" parent="1" source="4BPQ8lB-9sZFU7xo0qnq-15" target="4BPQ8lB-9sZFU7xo0qnq-2" edge="1">
          <mxGeometry width="160" relative="1" as="geometry">
            <mxPoint x="297" y="245" as="sourcePoint" />
            <mxPoint x="457" y="245" as="targetPoint" />
          </mxGeometry>
        </mxCell>
        <mxCell id="4BPQ8lB-9sZFU7xo0qnq-21" value="&amp;lt;&amp;lt;extend&amp;gt;&amp;gt;" style="html=1;verticalAlign=bottom;labelBackgroundColor=none;endArrow=open;endFill=0;dashed=1;rounded=0;" parent="1" source="4BPQ8lB-9sZFU7xo0qnq-17" target="4BPQ8lB-9sZFU7xo0qnq-13" edge="1">
          <mxGeometry width="160" relative="1" as="geometry">
            <mxPoint x="297" y="245" as="sourcePoint" />
            <mxPoint x="421" y="362" as="targetPoint" />
          </mxGeometry>
        </mxCell>
        <mxCell id="4BPQ8lB-9sZFU7xo0qnq-22" value="" style="endArrow=none;html=1;rounded=0;" parent="1" source="4BPQ8lB-9sZFU7xo0qnq-1" target="hRZYR1ejV4vaYIrMXX3N-1" edge="1">
          <mxGeometry width="50" height="50" relative="1" as="geometry">
            <mxPoint x="352" y="270" as="sourcePoint" />
            <mxPoint x="402" y="220" as="targetPoint" />
          </mxGeometry>
        </mxCell>
        <mxCell id="4BPQ8lB-9sZFU7xo0qnq-23" value="" style="endArrow=none;html=1;rounded=0;" parent="1" source="4BPQ8lB-9sZFU7xo0qnq-3" target="hRZYR1ejV4vaYIrMXX3N-1" edge="1">
          <mxGeometry width="50" height="50" relative="1" as="geometry">
            <mxPoint x="352" y="270" as="sourcePoint" />
            <mxPoint x="402" y="220" as="targetPoint" />
          </mxGeometry>
        </mxCell>
        <mxCell id="4BPQ8lB-9sZFU7xo0qnq-24" value="" style="endArrow=none;html=1;rounded=0;" parent="1" source="hRZYR1ejV4vaYIrMXX3N-1" target="4BPQ8lB-9sZFU7xo0qnq-6" edge="1">
          <mxGeometry width="50" height="50" relative="1" as="geometry">
            <mxPoint x="383" y="289" as="sourcePoint" />
            <mxPoint x="433" y="239" as="targetPoint" />
          </mxGeometry>
        </mxCell>
        <mxCell id="4BPQ8lB-9sZFU7xo0qnq-25" value="" style="endArrow=none;html=1;rounded=0;" parent="1" source="4BPQ8lB-9sZFU7xo0qnq-13" target="4BPQ8lB-9sZFU7xo0qnq-35" edge="1">
          <mxGeometry width="50" height="50" relative="1" as="geometry">
            <mxPoint x="383" y="289" as="sourcePoint" />
            <mxPoint x="433" y="239" as="targetPoint" />
          </mxGeometry>
        </mxCell>
        <mxCell id="4BPQ8lB-9sZFU7xo0qnq-26" value="" style="endArrow=none;html=1;rounded=0;" parent="1" source="4BPQ8lB-9sZFU7xo0qnq-42" target="4BPQ8lB-9sZFU7xo0qnq-12" edge="1">
          <mxGeometry width="50" height="50" relative="1" as="geometry">
            <mxPoint x="606" y="380" as="sourcePoint" />
            <mxPoint x="429" y="307" as="targetPoint" />
          </mxGeometry>
        </mxCell>
        <mxCell id="4BPQ8lB-9sZFU7xo0qnq-27" value="" style="endArrow=none;html=1;rounded=0;" parent="1" source="hRZYR1ejV4vaYIrMXX3N-1" target="4BPQ8lB-9sZFU7xo0qnq-7" edge="1">
          <mxGeometry width="50" height="50" relative="1" as="geometry">
            <mxPoint x="383" y="289" as="sourcePoint" />
            <mxPoint x="433" y="239" as="targetPoint" />
          </mxGeometry>
        </mxCell>
        <mxCell id="4BPQ8lB-9sZFU7xo0qnq-28" value="" style="endArrow=none;html=1;rounded=0;" parent="1" source="4BPQ8lB-9sZFU7xo0qnq-35" target="4BPQ8lB-9sZFU7xo0qnq-2" edge="1">
          <mxGeometry width="50" height="50" relative="1" as="geometry">
            <mxPoint x="383" y="289" as="sourcePoint" />
            <mxPoint x="433" y="239" as="targetPoint" />
          </mxGeometry>
        </mxCell>
        <mxCell id="4BPQ8lB-9sZFU7xo0qnq-29" value="acct admin" style="shape=umlActor;verticalLabelPosition=bottom;verticalAlign=top;html=1;outlineConnect=0;" parent="1" vertex="1">
          <mxGeometry x="752" y="154" width="30" height="60" as="geometry" />
        </mxCell>
        <mxCell id="4BPQ8lB-9sZFU7xo0qnq-30" value="" style="endArrow=none;html=1;rounded=0;" parent="1" source="4BPQ8lB-9sZFU7xo0qnq-8" target="4BPQ8lB-9sZFU7xo0qnq-29" edge="1">
          <mxGeometry width="50" height="50" relative="1" as="geometry">
            <mxPoint x="383" y="365" as="sourcePoint" />
            <mxPoint x="433" y="315" as="targetPoint" />
          </mxGeometry>
        </mxCell>
        <mxCell id="4BPQ8lB-9sZFU7xo0qnq-31" value="" style="endArrow=none;html=1;rounded=0;" parent="1" source="4BPQ8lB-9sZFU7xo0qnq-5" target="4BPQ8lB-9sZFU7xo0qnq-29" edge="1">
          <mxGeometry width="50" height="50" relative="1" as="geometry">
            <mxPoint x="383" y="303" as="sourcePoint" />
            <mxPoint x="433" y="253" as="targetPoint" />
          </mxGeometry>
        </mxCell>
        <mxCell id="4BPQ8lB-9sZFU7xo0qnq-32" value="staff" style="shape=umlActor;verticalLabelPosition=bottom;verticalAlign=top;html=1;outlineConnect=0;" parent="1" vertex="1">
          <mxGeometry x="-150" y="308" width="30" height="60" as="geometry" />
        </mxCell>
        <mxCell id="4BPQ8lB-9sZFU7xo0qnq-35" value="faculty" style="shape=umlActor;verticalLabelPosition=bottom;verticalAlign=top;html=1;outlineConnect=0;" parent="1" vertex="1">
          <mxGeometry x="-91" y="314" width="30" height="60" as="geometry" />
        </mxCell>
        <mxCell id="4BPQ8lB-9sZFU7xo0qnq-36" value="" style="endArrow=none;html=1;rounded=0;" parent="1" source="4BPQ8lB-9sZFU7xo0qnq-10" target="hRZYR1ejV4vaYIrMXX3N-1" edge="1">
          <mxGeometry width="50" height="50" relative="1" as="geometry">
            <mxPoint x="323" y="279" as="sourcePoint" />
            <mxPoint x="373" y="229" as="targetPoint" />
          </mxGeometry>
        </mxCell>
        <mxCell id="4BPQ8lB-9sZFU7xo0qnq-37" value="track_status" style="ellipse;whiteSpace=wrap;html=1;" parent="1" vertex="1">
          <mxGeometry x="201.5" y="266" width="124" height="48" as="geometry" />
        </mxCell>
        <mxCell id="4BPQ8lB-9sZFU7xo0qnq-38" value="check leave balance" style="ellipse;whiteSpace=wrap;html=1;" parent="1" vertex="1">
          <mxGeometry x="195.5" y="349" width="136" height="46" as="geometry" />
        </mxCell>
        <mxCell id="4BPQ8lB-9sZFU7xo0qnq-39" value="&amp;lt;&amp;lt;extend&amp;gt;&amp;gt;" style="html=1;verticalAlign=bottom;labelBackgroundColor=none;endArrow=open;endFill=0;dashed=1;rounded=0;" parent="1" source="4BPQ8lB-9sZFU7xo0qnq-37" target="4BPQ8lB-9sZFU7xo0qnq-1" edge="1">
          <mxGeometry width="160" relative="1" as="geometry">
            <mxPoint x="268" y="254" as="sourcePoint" />
            <mxPoint x="428" y="254" as="targetPoint" />
          </mxGeometry>
        </mxCell>
        <mxCell id="4BPQ8lB-9sZFU7xo0qnq-40" value="&amp;lt;&amp;lt;extend&amp;gt;&amp;gt;" style="html=1;verticalAlign=bottom;labelBackgroundColor=none;endArrow=open;endFill=0;dashed=1;rounded=0;" parent="1" source="4BPQ8lB-9sZFU7xo0qnq-38" target="4BPQ8lB-9sZFU7xo0qnq-1" edge="1">
          <mxGeometry width="160" relative="1" as="geometry">
            <mxPoint x="338" y="271" as="sourcePoint" />
            <mxPoint x="428" y="254" as="targetPoint" />
          </mxGeometry>
        </mxCell>
        <mxCell id="4BPQ8lB-9sZFU7xo0qnq-41" value="" style="endArrow=classic;html=1;rounded=0;" parent="1" source="4BPQ8lB-9sZFU7xo0qnq-32" target="hRZYR1ejV4vaYIrMXX3N-1" edge="1">
          <mxGeometry width="50" height="50" relative="1" as="geometry">
            <mxPoint x="323" y="279" as="sourcePoint" />
            <mxPoint x="373" y="229" as="targetPoint" />
          </mxGeometry>
        </mxCell>
        <mxCell id="4BPQ8lB-9sZFU7xo0qnq-42" value="section/dept&lt;br&gt;head" style="shape=umlActor;verticalLabelPosition=bottom;verticalAlign=top;html=1;outlineConnect=0;" parent="1" vertex="1">
          <mxGeometry x="758" y="338" width="30" height="60" as="geometry" />
        </mxCell>
        <mxCell id="4BPQ8lB-9sZFU7xo0qnq-43" value="HR admin" style="shape=umlActor;verticalLabelPosition=bottom;verticalAlign=top;html=1;outlineConnect=0;" parent="1" vertex="1">
          <mxGeometry x="758" y="564" width="30" height="60" as="geometry" />
        </mxCell>
        <mxCell id="4BPQ8lB-9sZFU7xo0qnq-44" value="" style="endArrow=classic;html=1;rounded=0;" parent="1" source="4BPQ8lB-9sZFU7xo0qnq-35" target="hRZYR1ejV4vaYIrMXX3N-1" edge="1">
          <mxGeometry width="50" height="50" relative="1" as="geometry">
            <mxPoint x="323" y="449" as="sourcePoint" />
            <mxPoint x="373" y="399" as="targetPoint" />
          </mxGeometry>
        </mxCell>
        <mxCell id="4BPQ8lB-9sZFU7xo0qnq-45" value="" style="endArrow=none;html=1;rounded=0;" parent="1" source="4BPQ8lB-9sZFU7xo0qnq-4" target="4BPQ8lB-9sZFU7xo0qnq-42" edge="1">
          <mxGeometry width="50" height="50" relative="1" as="geometry">
            <mxPoint x="589" y="398" as="sourcePoint" />
            <mxPoint x="373" y="399" as="targetPoint" />
          </mxGeometry>
        </mxCell>
        <mxCell id="4BPQ8lB-9sZFU7xo0qnq-46" value="" style="endArrow=none;html=1;rounded=0;" parent="1" source="4BPQ8lB-9sZFU7xo0qnq-42" target="4BPQ8lB-9sZFU7xo0qnq-9" edge="1">
          <mxGeometry width="50" height="50" relative="1" as="geometry">
            <mxPoint x="323" y="449" as="sourcePoint" />
            <mxPoint x="373" y="399" as="targetPoint" />
          </mxGeometry>
        </mxCell>
        <mxCell id="4BPQ8lB-9sZFU7xo0qnq-47" value="" style="endArrow=none;html=1;rounded=0;" parent="1" source="4BPQ8lB-9sZFU7xo0qnq-11" target="4BPQ8lB-9sZFU7xo0qnq-43" edge="1">
          <mxGeometry width="50" height="50" relative="1" as="geometry">
            <mxPoint x="323" y="449" as="sourcePoint" />
            <mxPoint x="373" y="399" as="targetPoint" />
          </mxGeometry>
        </mxCell>
        <mxCell id="4BPQ8lB-9sZFU7xo0qnq-48" value="review/forward/LTC request" style="ellipse;whiteSpace=wrap;html=1;" parent="1" vertex="1">
          <mxGeometry x="531" y="582" width="140" height="50" as="geometry" />
        </mxCell>
        <mxCell id="4BPQ8lB-9sZFU7xo0qnq-49" value="review/forward/CPDA request" style="ellipse;whiteSpace=wrap;html=1;" parent="1" vertex="1">
          <mxGeometry x="531" y="515" width="140" height="51" as="geometry" />
        </mxCell>
        <mxCell id="4BPQ8lB-9sZFU7xo0qnq-50" value="" style="endArrow=none;html=1;rounded=0;" parent="1" source="4BPQ8lB-9sZFU7xo0qnq-43" target="4BPQ8lB-9sZFU7xo0qnq-49" edge="1">
          <mxGeometry width="50" height="50" relative="1" as="geometry">
            <mxPoint x="323" y="449" as="sourcePoint" />
            <mxPoint x="373" y="399" as="targetPoint" />
          </mxGeometry>
        </mxCell>
        <mxCell id="4BPQ8lB-9sZFU7xo0qnq-51" value="" style="endArrow=none;html=1;rounded=0;" parent="1" source="4BPQ8lB-9sZFU7xo0qnq-48" target="4BPQ8lB-9sZFU7xo0qnq-43" edge="1">
          <mxGeometry width="50" height="50" relative="1" as="geometry">
            <mxPoint x="323" y="449" as="sourcePoint" />
            <mxPoint x="373" y="399" as="targetPoint" />
          </mxGeometry>
        </mxCell>
        <mxCell id="4BPQ8lB-9sZFU7xo0qnq-52" value="manage employee" style="ellipse;whiteSpace=wrap;html=1;" parent="1" vertex="1">
          <mxGeometry x="531" y="718" width="140" height="48" as="geometry" />
        </mxCell>
        <mxCell id="4BPQ8lB-9sZFU7xo0qnq-53" value="" style="endArrow=none;html=1;rounded=0;" parent="1" source="4BPQ8lB-9sZFU7xo0qnq-52" target="4BPQ8lB-9sZFU7xo0qnq-43" edge="1">
          <mxGeometry width="50" height="50" relative="1" as="geometry">
            <mxPoint x="323" y="689" as="sourcePoint" />
            <mxPoint x="373" y="639" as="targetPoint" />
          </mxGeometry>
        </mxCell>
        <mxCell id="4BPQ8lB-9sZFU7xo0qnq-55" value="Director" style="shape=umlActor;verticalLabelPosition=bottom;verticalAlign=top;html=1;outlineConnect=0;" parent="1" vertex="1">
          <mxGeometry x="-88" y="525" width="30" height="60" as="geometry" />
        </mxCell>
        <mxCell id="4BPQ8lB-9sZFU7xo0qnq-56" value="registrar" style="shape=umlActor;verticalLabelPosition=bottom;verticalAlign=top;html=1;outlineConnect=0;" parent="1" vertex="1">
          <mxGeometry x="-88" y="704" width="30" height="60" as="geometry" />
        </mxCell>
        <mxCell id="4BPQ8lB-9sZFU7xo0qnq-58" value="approve CPDA" style="ellipse;whiteSpace=wrap;html=1;" parent="1" vertex="1">
          <mxGeometry x="73" y="739" width="140" height="50" as="geometry" />
        </mxCell>
        <mxCell id="4BPQ8lB-9sZFU7xo0qnq-59" value="approve LTC request" style="ellipse;whiteSpace=wrap;html=1;" parent="1" vertex="1">
          <mxGeometry x="69" y="668" width="140" height="50" as="geometry" />
        </mxCell>
        <mxCell id="4BPQ8lB-9sZFU7xo0qnq-60" value="review/forward LTC request" style="ellipse;whiteSpace=wrap;html=1;" parent="1" vertex="1">
          <mxGeometry x="92" y="582" width="140" height="47" as="geometry" />
        </mxCell>
        <mxCell id="4BPQ8lB-9sZFU7xo0qnq-61" value="review/forward CPDA request" style="ellipse;whiteSpace=wrap;html=1;" parent="1" vertex="1">
          <mxGeometry x="90" y="515" width="140" height="51" as="geometry" />
        </mxCell>
        <mxCell id="4BPQ8lB-9sZFU7xo0qnq-62" value="" style="endArrow=none;html=1;rounded=0;" parent="1" source="4BPQ8lB-9sZFU7xo0qnq-61" target="4BPQ8lB-9sZFU7xo0qnq-55" edge="1">
          <mxGeometry width="50" height="50" relative="1" as="geometry">
            <mxPoint x="323" y="603" as="sourcePoint" />
            <mxPoint x="373" y="553" as="targetPoint" />
          </mxGeometry>
        </mxCell>
        <mxCell id="4BPQ8lB-9sZFU7xo0qnq-63" value="" style="endArrow=none;html=1;rounded=0;" parent="1" source="4BPQ8lB-9sZFU7xo0qnq-59" target="4BPQ8lB-9sZFU7xo0qnq-56" edge="1">
          <mxGeometry width="50" height="50" relative="1" as="geometry">
            <mxPoint x="323" y="603" as="sourcePoint" />
            <mxPoint x="373" y="553" as="targetPoint" />
          </mxGeometry>
        </mxCell>
        <mxCell id="4BPQ8lB-9sZFU7xo0qnq-64" value="" style="endArrow=none;html=1;rounded=0;" parent="1" source="4BPQ8lB-9sZFU7xo0qnq-58" target="4BPQ8lB-9sZFU7xo0qnq-56" edge="1">
          <mxGeometry width="50" height="50" relative="1" as="geometry">
            <mxPoint x="323" y="603" as="sourcePoint" />
            <mxPoint x="373" y="553" as="targetPoint" />
          </mxGeometry>
        </mxCell>
        <mxCell id="4BPQ8lB-9sZFU7xo0qnq-65" value="" style="endArrow=none;html=1;rounded=0;" parent="1" source="4BPQ8lB-9sZFU7xo0qnq-60" target="4BPQ8lB-9sZFU7xo0qnq-55" edge="1">
          <mxGeometry width="50" height="50" relative="1" as="geometry">
            <mxPoint x="323" y="603" as="sourcePoint" />
            <mxPoint x="373" y="553" as="targetPoint" />
          </mxGeometry>
        </mxCell>
        <mxCell id="eoSqSMIec8dBxsYl0gJ5-1" value="manage_employee_record" style="ellipse;whiteSpace=wrap;html=1;" vertex="1" parent="1">
          <mxGeometry x="507" y="86" width="152" height="60" as="geometry" />
        </mxCell>
        <mxCell id="eoSqSMIec8dBxsYl0gJ5-2" value="archive_employee" style="ellipse;whiteSpace=wrap;html=1;" vertex="1" parent="1">
          <mxGeometry x="357" y="689" width="118" height="48" as="geometry" />
        </mxCell>
        <mxCell id="eoSqSMIec8dBxsYl0gJ5-3" value="create_new_employee" style="ellipse;whiteSpace=wrap;html=1;" vertex="1" parent="1">
          <mxGeometry x="363" y="773" width="121" height="43" as="geometry" />
        </mxCell>
        <mxCell id="eoSqSMIec8dBxsYl0gJ5-4" value="" style="endArrow=none;html=1;rounded=0;" edge="1" parent="1" source="eoSqSMIec8dBxsYl0gJ5-2" target="4BPQ8lB-9sZFU7xo0qnq-52">
          <mxGeometry width="50" height="50" relative="1" as="geometry">
            <mxPoint x="352" y="761" as="sourcePoint" />
            <mxPoint x="402" y="711" as="targetPoint" />
          </mxGeometry>
        </mxCell>
        <mxCell id="eoSqSMIec8dBxsYl0gJ5-5" value="" style="endArrow=none;html=1;rounded=0;" edge="1" parent="1" source="eoSqSMIec8dBxsYl0gJ5-3" target="4BPQ8lB-9sZFU7xo0qnq-52">
          <mxGeometry width="50" height="50" relative="1" as="geometry">
            <mxPoint x="352" y="761" as="sourcePoint" />
            <mxPoint x="402" y="711" as="targetPoint" />
          </mxGeometry>
        </mxCell>
        <mxCell id="eoSqSMIec8dBxsYl0gJ5-7" value="manage_increment" style="ellipse;whiteSpace=wrap;html=1;" vertex="1" parent="1">
          <mxGeometry x="347" y="40.5" width="123" height="52" as="geometry" />
        </mxCell>
        <mxCell id="eoSqSMIec8dBxsYl0gJ5-8" value="manage_perks" style="ellipse;whiteSpace=wrap;html=1;" vertex="1" parent="1">
          <mxGeometry x="340" y="117" width="114" height="37" as="geometry" />
        </mxCell>
        <mxCell id="eoSqSMIec8dBxsYl0gJ5-9" value="&amp;lt;&amp;lt;extend&amp;gt;&amp;gt;" style="html=1;verticalAlign=bottom;labelBackgroundColor=none;endArrow=open;endFill=0;dashed=1;rounded=0;" edge="1" parent="1" source="eoSqSMIec8dBxsYl0gJ5-7" target="eoSqSMIec8dBxsYl0gJ5-1">
          <mxGeometry width="160" relative="1" as="geometry">
            <mxPoint x="297" y="179" as="sourcePoint" />
            <mxPoint x="457" y="179" as="targetPoint" />
          </mxGeometry>
        </mxCell>
        <mxCell id="eoSqSMIec8dBxsYl0gJ5-10" value="&amp;lt;&amp;lt;extend&amp;gt;&amp;gt;" style="html=1;verticalAlign=bottom;labelBackgroundColor=none;endArrow=open;endFill=0;dashed=1;rounded=0;" edge="1" parent="1" source="eoSqSMIec8dBxsYl0gJ5-8" target="eoSqSMIec8dBxsYl0gJ5-1">
          <mxGeometry width="160" relative="1" as="geometry">
            <mxPoint x="297" y="179" as="sourcePoint" />
            <mxPoint x="457" y="179" as="targetPoint" />
          </mxGeometry>
        </mxCell>
      </root>
    </mxGraphModel>
  </diagram>
</mxfile>
